<svg xmlns="http://www.w3.org/2000/svg" viewBox="0 0 180 180">
  <rect width="180" height="180" rx="36" fill="#0B2A5B"/>
  <path d="M22 22h136M22 56h136M22 90h136M22 124h136M22 158h136M22 22v136M56 22v136M90 22v136M124 22v136M158 22v136" stroke="#173B73" stroke-width="1.7"/>
  <circle cx="94" cy="80" r="47" fill="#071B46"/>
  <path d="M50 82c13-24 30-38 52-42 23-4 41 3 54 21-13-10-30-13-50-8-24 6-43 18-56 29Z" fill="#1356D8"/>
  <path d="M38 103c12-29 42-53 80-64 16-4 30-6 43-3-14 2-30 6-47 13-34 14-60 34-76 54Z" fill="#0E3FA3"/>
  <path d="M52 93c30-20 60-33 92-39" stroke="#E7F0FF" stroke-width="6" stroke-linecap="round" fill="none"/>
  <g fill="#AFCBFF">
    <circle cx="65" cy="66" r="4.5"/><circle cx="79" cy="60" r="4.5"/><circle cx="94" cy="55" r="4.5"/><circle cx="111" cy="54" r="4.5"/><circle cx="127" cy="59" r="4.5"/>
    <circle cx="61" cy="83" r="5"/><circle cx="78" cy="78" r="5"/><circle cx="95" cy="74" r="5"/><circle cx="113" cy="74" r="5"/><circle cx="132" cy="80" r="5"/>
    <circle cx="68" cy="101" r="4.8"/><circle cx="85" cy="97" r="4.8"/><circle cx="103" cy="96" r="4.8"/><circle cx="121" cy="99" r="4.8"/>
    <circle cx="82" cy="117" r="4.2"/><circle cx="99" cy="117" r="4.2"/><circle cx="116" cy="116" r="4.2"/>
  </g>
</svg>
