<svg xmlns="http://www.w3.org/2000/svg" viewBox="0 0 128 128">
  <rect width="128" height="128" rx="24" fill="#0B2A5B"/>
  <path d="M16 16h96M16 40h96M16 64h96M16 88h96M16 112h96M16 16v96M40 16v96M64 16v96M88 16v96M112 16v96" stroke="#173B73" stroke-width="1.2"/>
  <circle cx="67" cy="57" r="33" fill="#071B46"/>
  <path d="M36 58c9-17 21-27 36-30 16-3 29 2 38 15-9-7-21-9-35-6-17 4-30 13-39 21Z" fill="#1356D8"/>
  <path d="M27 73c8-20 29-37 56-45 11-3 21-4 30-2-10 1-21 4-33 9-24 10-42 24-53 38Z" fill="#0E3FA3"/>
  <path d="M37 66c21-14 42-23 65-27" stroke="#E7F0FF" stroke-width="4" stroke-linecap="round" fill="none"/>
  <g fill="#AFCBFF">
    <circle cx="46" cy="47" r="3.2"/><circle cx="56" cy="42" r="3.2"/><circle cx="67" cy="39" r="3.2"/><circle cx="79" cy="38" r="3.2"/><circle cx="90" cy="41" r="3.2"/>
    <circle cx="43" cy="59" r="3.5"/><circle cx="55" cy="55" r="3.5"/><circle cx="67" cy="52" r="3.5"/><circle cx="80" cy="52" r="3.5"/><circle cx="93" cy="56" r="3.5"/>
    <circle cx="48" cy="72" r="3.4"/><circle cx="60" cy="69" r="3.4"/><circle cx="73" cy="68" r="3.4"/><circle cx="86" cy="70" r="3.4"/>
    <circle cx="58" cy="83" r="3"/><circle cx="70" cy="83" r="3"/><circle cx="82" cy="82" r="3"/>
  </g>
</svg>
